<?xml version="1.0" encoding="utf-8"?>
<!-- Generator: Adobe Illustrator 27.9.4, SVG Export Plug-In . SVG Version: 9.03 Build 54784)  -->
<svg version="1.1" id="Calque_1" xmlns="http://www.w3.org/2000/svg" xmlns:xlink="http://www.w3.org/1999/xlink" x="0px" y="0px"
	 viewBox="0 0 1920 216.4" style="enable-background:new 0 0 1920 216.4;" xml:space="preserve">
<style type="text/css">
	.st0{fill:#034718;}
</style>
<g>
	<path class="st0" d="M1889,102.2c-11.9-16.2-1.9-39.5-7.5-58.8c-4.2-14.6-18.2-25.8-33.3-26.7c-15.1-0.9-30.4,8.5-36.3,22.5
		c-4.1,9.7-3.9,20.7-6.5,30.9c-6.8,27.4-35.6,47.4-63.6,44.2c-30.7-3.5-53-29.5-78.1-47.6s-65.9-25.9-82.7,0
		c-5.3,8.3-7,18.5-12.6,26.6c-10.3,15-30.8,18.5-48.9,19c-13.7,0.4-28-0.4-39.7-7.5s-19.4-22.4-13.9-34.9c4-8.9,13.6-14.7,16.5-24
		c6.1-20.1-22.1-33.3-43-31.1c-20.9,2.1-44.6,14.5-45.4,35.4c-0.4,9.9,4.5,19.2,6.6,29c4.3,20.7-6.3,43.5-24.9,53.6
		c-18.5,10.1-43.5,6.5-58.5-8.3c-8.1-8-13.2-18.5-20.9-26.9c-19.9-21.6-57.4-23.6-79.5-4.3c-11.5,10.1-18.6,24.3-29.5,35.1
		c-30.1,29.8-88.6,20.6-108-17.1c-8.4-16.2-9.8-35-12.8-53s-8.3-36.9-22-49c-13.7-12.1-37.9-13.6-48.6,1.2
		c-8.7,12.2-5.1,28.7-3.3,43.6c3.1,25.3-6.1,57.9-31.4,60.9c-0.4,0-0.8,0.1-1.2,0.1c-0.4,0-0.8-0.1-1.2-0.1
		c-25.3-3-34.5-35.6-31.4-60.9c1.8-14.8,5.4-31.4-3.3-43.6c-10.6-14.8-34.9-13.3-48.6-1.2c-13.7,12.1-19,31-22,49
		c-3,18-4.4,36.8-12.8,53c-19.4,37.7-77.9,47-108,17.1c-10.9-10.8-17.9-25.1-29.5-35.1c-22.1-19.3-59.6-17.3-79.5,4.3
		c-7.7,8.4-12.8,18.9-20.9,26.9c-15,14.8-40,18.4-58.5,8.3c-18.5-10.1-29.1-32.9-24.9-53.6c2-9.7,7-19,6.6-29
		c-0.9-21-24.6-33.3-45.4-35.4c-20.9-2.1-49.1,11-43,31.1c2.9,9.3,12.5,15.1,16.5,24c5.5,12.5-2.2,27.8-13.9,34.9s-26,7.9-39.7,7.5
		c-18.2-0.5-38.6-4-48.9-19c-5.6-8.1-7.2-18.4-12.6-26.6c-16.8-26-57.6-18.1-82.7,0c-25.1,18.1-47.4,44.1-78.1,47.6
		c-28,3.2-56.8-16.9-63.6-44.2c-2.5-10.2-2.3-21.2-6.5-30.9c-5.9-14-21.2-23.4-36.3-22.5c-15.1,0.9-29.1,12.1-33.3,26.7
		c-5.6,19.3,4.4,42.6-7.5,58.8c-7,9.5-19.4,12-31,9.3v105h960h960v-105C1908.4,114.2,1896,111.7,1889,102.2z"/>
</g>
</svg>
