<?xml version="1.0" encoding="utf-8"?>
<!-- Generator: Adobe Illustrator 27.9.4, SVG Export Plug-In . SVG Version: 9.03 Build 54784)  -->
<svg version="1.1" id="Calque_1" xmlns="http://www.w3.org/2000/svg" xmlns:xlink="http://www.w3.org/1999/xlink" x="0px" y="0px"
	 viewBox="0 0 1303.6 146.9" style="enable-background:new 0 0 1303.6 146.9;" xml:space="preserve">
<style type="text/css">
	.st0{fill:#13A03B;}
</style>
<g>
	<path class="st0" d="M21.1,77.5c8.1,11,1.3,26.8,5.1,39.9c2.9,9.9,12.4,17.5,22.6,18.1c10.3,0.6,20.6-5.8,24.7-15.3
		c2.8-6.6,2.7-14,4.4-21c4.6-18.6,24.2-32.2,43.2-30c20.9,2.4,36,20,53,32.3s44.8,17.6,56.1,0c3.6-5.6,4.7-12.6,8.5-18.1
		c7-10.2,20.9-12.6,33.2-12.9c9.3-0.3,19,0.3,27,5.1s13.2,15.2,9.4,23.7c-2.7,6.1-9.2,10-11.2,16.3c-4.2,13.6,15,22.6,29.2,21.1
		c14.2-1.5,30.2-9.8,30.9-24.1c0.3-6.8-3.1-13.1-4.5-19.7c-2.9-14,4.3-29.6,16.9-36.4c12.6-6.8,29.5-4.4,39.7,5.6
		c5.5,5.4,9,12.6,14.2,18.3c13.5,14.7,39,16,54,2.9c7.8-6.8,12.6-16.5,20-23.8c20.5-20.3,60.2-14,73.3,11.6c5.7,11,6.7,23.8,8.7,36
		s5.6,25,14.9,33.3c9.3,8.2,25.8,9.3,33-0.8c5.9-8.2,3.5-19.5,2.2-29.6c-2.1-17.2,4.1-39.3,21.3-41.4c0.3,0,0.5,0,0.8-0.1
		c0.3,0,0.5,0,0.8,0.1c17.2,2,23.4,24.2,21.3,41.4c-1.2,10.1-3.7,21.3,2.2,29.6c7.2,10.1,23.7,9,33,0.8c9.3-8.2,12.9-21,14.9-33.3
		s3-25,8.7-36c13.2-25.6,52.9-31.9,73.3-11.6c7.4,7.3,12.2,17,20,23.8c15,13.1,40.5,11.7,54-2.9c5.2-5.7,8.7-12.8,14.2-18.3
		c10.2-10.1,27.1-12.5,39.7-5.6S953.7,79,950.8,93c-1.4,6.6-4.7,12.9-4.5,19.7c0.6,14.2,16.7,22.6,30.9,24.1
		c14.2,1.5,33.3-7.5,29.2-21.1c-1.9-6.3-8.5-10.2-11.2-16.3c-3.8-8.5,1.5-18.8,9.4-23.7s17.7-5.3,27-5.1
		c12.3,0.3,26.2,2.7,33.2,12.9c3.8,5.5,4.9,12.5,8.5,18.1c11.4,17.6,39.1,12.3,56.1,0c17-12.3,32.2-29.9,53-32.3
		c19-2.1,38.6,11.4,43.2,30c1.7,7,1.6,14.4,4.4,21c4,9.5,14.4,15.9,24.7,15.3c10.3-0.6,19.8-8.2,22.6-18.1c3.8-13.1-3-28.9,5.1-39.9
		c4.7-6.5,13.2-8.2,21.1-6.3V0H651.8H0v71.3C7.9,69.4,16.3,71.1,21.1,77.5z"/>
</g>
</svg>
