<?xml version="1.0" encoding="utf-8"?>
<!-- Generator: Adobe Illustrator 27.9.4, SVG Export Plug-In . SVG Version: 9.03 Build 54784)  -->
<svg version="1.1" id="Calque_1" xmlns="http://www.w3.org/2000/svg" xmlns:xlink="http://www.w3.org/1999/xlink" x="0px" y="0px"
	 viewBox="0 0 2431.8 47.6" style="enable-background:new 0 0 2431.8 47.6;" xml:space="preserve">
<style type="text/css">
	.st0{fill:#13A03B;}
	.st1{fill:#0D8429;}
</style>
<path class="st0" d="M2344,27.1c-31.2,0.2-59.2-26.7-90-21.5c-23.3,4-43.2,26.1-66.4,21.7c-15.3-2.9-26.1-16.5-40.4-22.5
	c-38.1-16-78.6,26.3-119.6,20.6c-28.9-4-54.4-31.6-82.6-24.1c-8.5,2.3-15.9,7.7-23.7,11.9c-17.1,9.3-37,13.3-56.3,11.3
	c-11.3-1.2-22.5-4.3-33.7-7.6c-4.7-1.4-9.7-1.4-14.4-0.1c-9.1,2.6-24.7,6.7-34,7.7c-19.3,1.9-39.2-2-56.3-11.3
	c-7.8-4.3-15.1-9.6-23.7-11.9c-28.2-7.5-53.7,20.1-82.6,24.1c-40.9,5.6-81.5-36.6-119.6-20.6c-14.3,6-25.2,19.6-40.4,22.5
	c-23.3,4.4-43.2-17.6-66.5-21.6c-30.8-5.2-58.9,21.6-90.1,21.4c-19.2-0.2-49.3-12.7-73.9-12.4c-9.3,0.1-18.6,0.1-27.9,0
	c-24.6-0.3-54.7,12.2-73.9,12.4c-31.2,0.2-59.3-26.6-90.1-21.4c-23.3,4-43.2,26-66.5,21.6c-15.2-2.9-26.1-16.5-40.4-22.5
	C893-11.2,852.4,31,811.5,25.4c-28.9-4-54.4-31.6-82.6-24.1c-8.6,2.3-15.9,7.6-23.7,11.9c-17.1,9.3-37,13.2-56.3,11.3
	c-9.3-1-24.9-5.1-34-7.7c-4.7-1.3-9.7-1.3-14.4,0.1c-11.2,3.3-22.4,6.4-33.7,7.6c-19.3,2-39.2-2-56.3-11.3
	c-7.8-4.2-15.2-9.6-23.7-11.9c-28.2-7.5-53.7,20.1-82.6,24.1c-41,5.7-81.5-36.6-119.6-20.6c-14.3,6-25.1,19.6-40.4,22.5
	C221,31.7,201.1,9.6,177.8,5.6C147,0.4,119,27.3,87.8,27.1C64.8,26.9,26,8.9,0,16.6v31h607.9h0.1h607.9h607.9h0.1h607.9v-31
	C2405.8,8.9,2367,26.9,2344,27.1z"/>
<g>
	<g>
		<path class="st1" d="M29.3,21.3c7.5,1.8,14.5,5.2,21.8,7.8s15.1,4.4,22.7,2.8l0,0c-14.1,3.6-29.1,3.3-43.1-0.8
			C27,30,14.5,27.3,13.9,22.6C13.2,17.1,26.1,20.6,29.3,21.3z"/>
	</g>
	<g>
		<path class="st1" d="M175.9,11.8c13,3.1,22.9,14.9,36.4,15.5c1,0,2,0.9,2.1,1.9s-0.6,1.4-1.2,1.7c-4.3,1.9-9.2,1.5-13.7,0.2
			s-8.6-3.6-12.8-5.5l0,0c-6-2.7-12.4-4.8-19-5.8c-4.5-0.7-12.7,1.2-16.4-1.9c-5.3-4.2,1.6-4.9,5.6-5.7
			C163.1,11,169.7,10.3,175.9,11.8z"/>
	</g>
	<g>
		<path class="st1" d="M305.4,7.9L305.4,7.9c13.5,0.6,26.3,6,38.2,12.3c0.6,0.3,1.3,0.7,1.3,1.6s-0.5,1.7-1.3,2.2
			c-5.3,3.3-11.4-0.9-16.8-3.6c-8.7-4.2-18.8-4.2-28.4-4c-6.1,0.1-9.1,1.8-14.3,4c-2.4,1-7,2.5-7.2-2.5
			C276.6,9.6,299.9,7.7,305.4,7.9z"/>
	</g>
	<g>
		<path class="st1" d="M463.8,7.8c13.8-4.1,29-0.1,40.9,8c1,0.7,2,1.4,1.8,2.8c-0.2,1.2-1.1,2-2.3,2.2c-2.3,0.4-4.1-1.1-6-2.2
			c-8.4-5.1-19.1-4.1-28.6-1.5l0,0c-4.4,1.2-18.6,8.5-20.6,2.4C446.9,12.9,459.7,9.1,463.8,7.8z"/>
	</g>
	<g>
		<path class="st1" d="M610.6,24L610.6,24c4.2,1.9,8.8,2.8,13.4,2.6c2.1-0.1,4.4-0.3,6.2,0.9c1,0.7,1.7,2,1.4,3.2
			c-0.5,2.1-3,2.4-5,2.3c-4.8-0.2-9.5-1-14.3-1.6c-3.8-0.4-10.2,0.6-13.5-1.3C588.8,24.3,605.5,21.8,610.6,24z"/>
	</g>
	<g>
		<path class="st1" d="M739.5,7L739.5,7c9.8,0.7,19.1,4.8,28.1,8.8c7.6,3.4,15.1,6.7,22.7,10.1c-1.4,2.8-5.4,3-8.5,2.6
			c-14.8-2.1-28.3-9-42.8-12.5c-3.3-0.8-17-0.5-17.4-3.7C720.9,6.9,736.1,6.8,739.5,7z"/>
	</g>
	<g>
		<path class="st1" d="M878.1,19L878.1,19c13.4-5.4,27-13.8,41.1-11c4.1,0.8,8,2.6,11.3,5.1c0.6,0.4,1.2,1,1.2,1.7
			c0,0.5-0.4,1-0.8,1.4c-3,2.5-7.5,0.6-11.3-0.2c-11.4-2.6-22.1,5.7-33.3,9.4c-4.5,1.5-16.1,5-20.3,1.6
			C860.4,22.4,874.8,20.3,878.1,19z"/>
	</g>
	<g>
		<path class="st1" d="M1048.6,12.3L1048.6,12.3c17.4,0.9,34.5,6.8,48.8,16.7c-6.1,3.6-13.7,0.5-20.4-2c-14.4-5.2-29.4-6.5-44.6-5.2
			c-5,0.5-11.4-1.6-5.1-6.3C1032.5,11.8,1042.5,12,1048.6,12.3z"/>
	</g>
</g>
<g>
	<g>
		<path class="st1" d="M2402.5,21.3c-7.5,1.8-14.5,5.2-21.8,7.8c-7.3,2.6-15.1,4.4-22.7,2.8l0,0c14.1,3.6,29.1,3.3,43.1-0.8
			c3.7-1.1,16.2-3.8,16.8-8.5C2418.6,17.1,2405.7,20.6,2402.5,21.3z"/>
	</g>
	<g>
		<path class="st1" d="M2255.9,11.8c-13,3.1-22.9,14.9-36.4,15.5c-1,0-2,0.9-2.1,1.9c-0.1,1,0.6,1.4,1.2,1.7
			c4.3,1.9,9.2,1.5,13.7,0.2s8.6-3.6,12.8-5.5l0,0c6-2.7,12.4-4.8,19-5.8c4.5-0.7,12.7,1.2,16.4-1.9c5.3-4.2-1.6-4.9-5.6-5.7
			C2268.7,11,2262.1,10.3,2255.9,11.8z"/>
	</g>
	<g>
		<path class="st1" d="M2126.4,7.9L2126.4,7.9c-13.5,0.6-26.3,6-38.2,12.3c-0.6,0.3-1.3,0.7-1.3,1.6s0.5,1.7,1.3,2.2
			c5.3,3.3,11.4-0.9,16.8-3.6c8.7-4.2,18.8-4.2,28.4-4c6.1,0.1,9.1,1.8,14.3,4c2.4,1,7,2.5,7.2-2.5
			C2155.2,9.6,2131.9,7.7,2126.4,7.9z"/>
	</g>
	<g>
		<path class="st1" d="M1968,7.8c-13.8-4.1-29-0.1-40.9,8c-1,0.7-2,1.4-1.8,2.8c0.2,1.2,1.1,2,2.3,2.2c2.3,0.4,4.1-1.1,6-2.2
			c8.4-5.1,19.1-4.1,28.6-1.5l0,0c4.4,1.2,18.6,8.5,20.6,2.4C1984.9,12.9,1972.1,9.1,1968,7.8z"/>
	</g>
	<g>
		<path class="st1" d="M1821.2,24L1821.2,24c-4.2,1.9-8.8,2.8-13.4,2.6c-2.1-0.1-4.4-0.3-6.2,0.9c-1,0.7-1.7,2-1.4,3.2
			c0.5,2.1,3,2.4,5,2.3c4.8-0.2,9.5-1,14.3-1.6c3.8-0.4,10.2,0.6,13.5-1.3C1843,24.3,1826.3,21.8,1821.2,24z"/>
	</g>
	<g>
		<path class="st1" d="M1692.3,7L1692.3,7c-9.8,0.7-19.1,4.8-28.1,8.8c-7.6,3.4-15.1,6.7-22.7,10.1c1.4,2.8,5.4,3,8.5,2.6
			c14.8-2.1,28.3-9,42.8-12.5c3.3-0.8,17-0.5,17.4-3.7C1710.9,6.9,1695.7,6.8,1692.3,7z"/>
	</g>
	<g>
		<path class="st1" d="M1553.7,19L1553.7,19c-13.4-5.4-27-13.8-41.1-11c-4.1,0.8-8,2.6-11.3,5.1c-0.6,0.4-1.2,1-1.2,1.7
			c0,0.5,0.4,1,0.8,1.4c3,2.5,7.5,0.6,11.3-0.2c11.4-2.6,22.1,5.7,33.3,9.4c4.5,1.5,16.1,5,20.3,1.6
			C1571.4,22.4,1557,20.3,1553.7,19z"/>
	</g>
	<g>
		<path class="st1" d="M1383.2,12.3L1383.2,12.3c-17.4,0.9-34.5,6.8-48.8,16.7c6.1,3.6,13.7,0.5,20.4-2c14.4-5.2,29.4-6.5,44.6-5.2
			c5,0.5,11.4-1.6,5.1-6.3C1399.3,11.8,1389.3,12,1383.2,12.3z"/>
	</g>
</g>
</svg>
