<?xml version="1.0" encoding="utf-8"?>
<!-- Generator: Adobe Illustrator 27.9.4, SVG Export Plug-In . SVG Version: 9.03 Build 54784)  -->
<svg version="1.1" id="Calque_1" xmlns="http://www.w3.org/2000/svg" xmlns:xlink="http://www.w3.org/1999/xlink" x="0px" y="0px"
	 viewBox="0 0 1093 29.9" style="enable-background:new 0 0 1093 29.9;" xml:space="preserve">
<style type="text/css">
	.st0{fill:#07AA2A;}
</style>
<path class="st0" d="M1049.2,18.8c-33.8,4.5-66.3-25.1-99.6-17.5c-8.2,1.9-15.8,6-23.7,9c-22,8.6-47.2,8.9-69.4,0.9
	c-6.9-2.5-13.5-5.7-20.6-7.5c-39.2-9.9-80.4,26.1-118.8,13.1C706.2,13,696.6,5.4,685.3,2.5C658.5-4.3,632.6,16.8,605,19
	c-11.3,0.9-22.2-1.4-33-4.7c-8.3-2.5-16.9-3.7-25.4-3.7s-17.1,1.2-25.4,3.7c-10.8,3.3-21.8,5.5-33,4.7
	c-27.6-2.2-53.5-23.3-80.3-16.4c-11.3,2.9-20.9,10.5-31.9,14.3c-38.3,13-79.5-23-118.8-13.1c-7.1,1.8-13.7,5-20.6,7.5
	c-22.2,8-47.4,7.7-69.4-0.9c-7.9-3.1-15.4-7.2-23.7-9c-33.3-7.6-65.7,22-99.6,17.5c-9.3-1.2-27-8.5-43.8-12.6v23.8h546.5H1093V6.2
	C1076.2,10.2,1058.5,17.5,1049.2,18.8z"/>
</svg>
