<?xml version="1.0" encoding="utf-8"?>
<!-- Generator: Adobe Illustrator 27.9.4, SVG Export Plug-In . SVG Version: 9.03 Build 54784)  -->
<svg version="1.1" id="Calque_1" xmlns="http://www.w3.org/2000/svg" xmlns:xlink="http://www.w3.org/1999/xlink" x="0px" y="0px"
	 viewBox="0 0 1645 132.7" style="enable-background:new 0 0 1645 132.7;" xml:space="preserve">
<style type="text/css">
	.st0{fill:#003D13;}
</style>
<g>
	<path class="st0" d="M822.5,0H0v72.7C15.4,77,33.1,74.1,47.2,82c13.5,7.5,20.1,22.9,29.7,35c9.6,12.1,27.8,21.3,39.9,11.8
		c9.4-7.3,9.4-21.2,11.9-32.9c3.3-15.6,13.5-30.4,28.3-36.4c14.8-6,34.1-1.1,42.1,12.7c6.3,10.9,5,24.6,9,36.6
		c4,12,19.4,22.4,28.7,13.8c5.7-5.3,5.2-14.2,5.8-22c1.6-20.6,15.6-39.7,34.8-47.5c19.1-7.8,42.5-3.9,58,9.7
		c5.9,5.1,10.7,11.5,17.3,15.7c16.3,10.4,38.1,4.6,54.9-4.9c16.8-9.5,32.3-22.5,51.2-26.6c18.9-4.2,42.9,5.4,45.1,24.6
		c1.3,11.3-5.2,22.4-3.8,33.6c1.4,11.4,12.1,20.9,23.6,21.1c11.5,0.2,22.4-9,24.2-20.3c1.7-10.7-3.8-21.8-1.1-32.3
		c4.5-17.2,27.5-21.4,44.7-17.1c17.2,4.3,34,13.6,51.6,11c27.2-4.1,49.5-36.1,75.4-27.1C733.9,46,742.2,64.6,758,69
		c15.6,4.4,30.9-6.7,46.5-11.1c5.9-1.7,11.9-2.4,18-2.7c6.1,0.3,12.1,1,18,2.7c15.6,4.4,30.9,15.5,46.5,11.1
		c15.8-4.4,24.1-22.9,39.5-28.3c26-9,48.2,23,75.4,27.1c17.5,2.7,34.4-6.7,51.6-11c17.2-4.3,40.2-0.1,44.7,17.1
		c2.8,10.5-2.8,21.6-1.1,32.3c1.8,11.4,12.7,20.5,24.2,20.3c11.5-0.2,22.1-9.7,23.6-21.1c1.4-11.2-5.1-22.3-3.8-33.6
		c2.2-19.2,26.2-28.8,45.1-24.6c18.9,4.2,34.3,17.1,51.2,26.6c16.8,9.5,38.6,15.3,54.9,4.9c6.6-4.2,11.4-10.6,17.3-15.7
		c15.5-13.6,38.9-17.5,58-9.7c19.1,7.8,33.1,26.9,34.8,47.5c0.6,7.8,0.1,16.7,5.8,22c9.3,8.6,24.7-1.8,28.7-13.8
		c4-12,2.6-25.7,9-36.6c8-13.8,27.3-18.7,42.1-12.7c14.8,6,25,20.7,28.3,36.4c2.5,11.7,2.5,25.5,11.9,32.9
		c12.2,9.5,30.3,0.2,39.9-11.8c9.6-12.1,16.2-27.5,29.7-35c14.1-7.9,31.7-4.9,47.2-9.2V0H822.5z"/>
</g>
</svg>
