<?xml version="1.0" encoding="utf-8"?>
<!-- Generator: Adobe Illustrator 27.9.4, SVG Export Plug-In . SVG Version: 9.03 Build 54784)  -->
<svg version="1.1" id="Calque_1" xmlns="http://www.w3.org/2000/svg" xmlns:xlink="http://www.w3.org/1999/xlink" x="0px" y="0px"
	 viewBox="0 0 1480 119.4" style="enable-background:new 0 0 1480 119.4;" xml:space="preserve">
<style type="text/css">
	.st0{fill:#07AA2A;}
</style>
<g>
	<path class="st0" d="M740,0H0v65.4c13.9,3.9,29.8,1.2,42.4,8.3c12.1,6.8,18.1,20.6,26.7,31.5c8.6,10.9,25,19.2,35.9,10.6
		c8.5-6.6,8.5-19.1,10.7-29.6c3-14.1,12.1-27.4,25.5-32.7c13.4-5.4,30.7-1,37.9,11.4c5.7,9.8,4.5,22.2,8.1,32.9
		c3.6,10.8,17.4,20.1,25.8,12.4c5.1-4.8,4.6-12.8,5.2-19.8c1.5-18.5,14.1-35.7,31.3-42.7c17.2-7,38.2-3.5,52.2,8.8
		c5.3,4.6,9.6,10.4,15.5,14.2c14.6,9.4,34.2,4.2,49.4-4.4c15.2-8.5,29.1-20.2,46.1-23.9c17-3.7,38.6,4.9,40.6,22.1
		c1.2,10.1-4.7,20.1-3.4,30.2c1.3,10.3,10.9,18.8,21.2,19c10.3,0.2,20.2-8.1,21.8-18.3c1.5-9.6-3.5-19.6-1-29
		c4.1-15.4,24.8-19.2,40.3-15.4c15.5,3.8,30.6,12.3,46.4,9.9c24.5-3.7,44.5-32.5,67.9-24.4c13.9,4.8,21.4,21.5,35.6,25.5
		c14,4,27.8-6,41.8-10c5.3-1.5,10.7-2.1,16.2-2.4c5.5,0.3,10.9,0.9,16.2,2.4c14,4,27.8,13.9,41.8,10c14.2-4,21.6-20.6,35.6-25.5
		C857,28.5,877,57.3,901.5,61c15.8,2.4,30.9-6,46.4-9.9c15.5-3.8,36.2,0,40.3,15.4c2.5,9.4-2.5,19.4-1,29
		c1.6,10.2,11.5,18.5,21.8,18.3c10.3-0.2,19.9-8.7,21.2-19c1.3-10.1-4.6-20.1-3.4-30.2c2-17.3,23.6-25.9,40.6-22.1
		c17,3.7,30.9,15.4,46.1,23.9c15.2,8.5,34.8,13.8,49.4,4.4c5.9-3.8,10.3-9.5,15.5-14.2c14-12.2,35-15.8,52.2-8.8
		c17.2,7,29.8,24.2,31.3,42.7c0.6,7,0.1,15,5.2,19.8c8.3,7.7,22.2-1.6,25.8-12.4c3.6-10.8,2.4-23.1,8.1-32.9
		c7.2-12.4,24.6-16.8,37.9-11.4c13.4,5.4,22.5,18.7,25.5,32.7c2.2,10.5,2.2,23,10.7,29.6c11,8.5,27.3,0.2,35.9-10.6
		c8.6-10.9,14.6-24.7,26.7-31.5c12.7-7.1,28.6-4.4,42.4-8.3V0H740z"/>
</g>
</svg>
