<?xml version="1.0" encoding="utf-8"?>
<!-- Generator: Adobe Illustrator 27.9.4, SVG Export Plug-In . SVG Version: 9.03 Build 54784)  -->
<svg version="1.1" id="Calque_1" xmlns="http://www.w3.org/2000/svg" xmlns:xlink="http://www.w3.org/1999/xlink" x="0px" y="0px"
	 viewBox="0 0 1920 113" style="enable-background:new 0 0 1920 113;" xml:space="preserve">
<style type="text/css">
	.st0{fill:#007A25;}
</style>
<g>
	<path class="st0" d="M1903,36.9c-42.8-1.2-83.7,23.8-126.4,19.8c-52.6-4.9-97.2-53.2-149.6-46.5c-38,4.8-68.5,37.9-106.8,39.8
		c-46.7,2.3-85-42.6-131.7-43.8c-41.3-1-76.2,32.2-117.2,37.5c-62.7,8.1-119.5-50.1-182.3-43C1043.1,5.8,1005.8,45,960,48.3
		C914.2,45,876.9,5.8,831.1,0.6c-62.8-7.1-119.6,51.1-182.3,43c-41-5.3-75.9-38.5-117.2-37.5c-46.8,1.2-85,46.1-131.7,43.8
		C361.6,48.1,331,15,293,10.2c-52.5-6.7-97,41.6-149.6,46.5c-42.7,4-83.5-21-126.4-19.8c-5.2,0.1-11,0.8-17,2V113h960h960V38.9
		C1914,37.7,1908.1,37,1903,36.9z"/>
</g>
</svg>
